name C:\Users\antoi\Documents\MyRepositories\predsim_tutorial\Results\Case_0\GRF.mot
datacolumns 19
datarows 17
range 0.00000000 0.17781715
endheader 
time	r_ground_force_vx	r_ground_force_vy	r_ground_force_vz	r_ground_force_px	r_ground_force_py	r_ground_force_pz	l_ground_force_vx	l_ground_force_vy	l_ground_force_vz	l_ground_force_px	l_ground_force_py	l_ground_force_pz	r_ground_torque_x	r_ground_torque_y	r_ground_torque_z	l_ground_torque_x	l_ground_torque_y	l_ground_torque_z	
          0.00000000	        -60.67857878	         58.82949443	         12.88564494	          0.20811624	          0.00000000	          0.04254100	         75.34043534	        458.49753818	          6.55990016	         -0.31061685	          0.00000000	         -0.06244224	          0.00000000	         -0.00000012	          0.00000000	          0.00000000	         -3.82206502	          0.00000000	
          0.01111357	        -22.60250955	        201.85560664	         13.03620331	          0.21265603	          0.00000000	          0.04163578	         66.07932763	        395.19758363	          2.75397845	         -0.30274532	          0.00000000	         -0.06450257	          0.00000000	         -0.00003082	          0.00000000	          0.00000000	         -3.20075919	          0.00000000	
          0.02222714	        -31.73474110	        379.43751408	         -4.43819509	          0.21371298	          0.00000000	          0.04104560	         54.68798475	        337.35587956	         -0.08160938	         -0.29551557	          0.00000000	         -0.06670088	          0.00000000	         -0.00130205	          0.00000000	          0.00000000	         -2.43739768	          0.00000000	
          0.03334071	        -58.56674169	        524.14098508	        -10.90337324	          0.21451456	          0.00000000	          0.04089657	         45.97941365	        293.73049819	         -5.25557646	         -0.29299936	          0.00000000	         -0.06645279	          0.00000000	         -0.03033609	          0.00000000	          0.00000000	         -2.00388268	          0.00000000	
          0.04445429	        -72.77304181	        611.37942505	        -11.51378379	          0.21624756	          0.00000000	          0.04121685	         39.06554952	        246.21510444	        -11.57913790	         -0.29146416	          0.00000000	         -0.06427827	          0.00000000	         -0.19890380	          0.00000000	          0.00000000	         -1.61606751	          0.00000000	
          0.05556786	        -86.63159459	        668.73515320	        -11.31946058	          0.22009269	          0.00000000	          0.04252997	         32.08232610	        194.79296682	        -16.19647890	         -0.28933264	          0.00000000	         -0.06132783	          0.00000000	         -0.67213732	          0.00000000	          0.00000000	         -1.16768080	          0.00000000	
          0.06668143	        -98.19568699	        718.49748756	        -13.04190801	          0.22582483	          0.00000000	          0.04469300	         19.25358857	        141.82975150	        -20.51933293	         -0.28675822	          0.00000000	         -0.05753199	          0.00000000	         -1.10679454	          0.00000000	          0.00000000	         -0.71523891	          0.00000000	
          0.07779500	        -97.36774864	        736.56075407	        -12.75135348	          0.23065992	          0.00000000	          0.04627588	          1.86559589	         87.88192703	        -18.42510168	         -0.28339310	          0.00000000	         -0.05131944	          0.00000000	         -1.35815017	          0.00000000	          0.00000000	         -0.32037063	          0.00000000	
          0.08890857	        -93.24717454	        738.45765267	        -13.44569146	          0.23508793	          0.00000000	          0.04716375	        -12.95388127	         35.34629131	         -9.82362009	         -0.27737338	          0.00000000	         -0.03527942	          0.00000000	         -1.57965353	          0.00000000	          0.00000000	         -0.05381339	          0.00000000	
          0.10002214	        -83.93030839	        731.58838889	        -13.34349229	          0.23955857	          0.00000000	          0.04760307	          0.00000000	          0.00000000	          0.00000000	          0.00000000	          0.00000000	          0.00000000	          0.00000000	         -1.94865831	          0.00000000	          0.00000000	          0.00000000	          0.00000000	
          0.11113572	        -77.31214467	        719.10655051	        -12.62322992	          0.24534889	          0.00000000	          0.04718755	          0.00000000	          0.00000000	          0.00000000	          0.00000000	          0.00000000	          0.00000000	          0.00000000	         -2.61358751	          0.00000000	          0.00000000	          0.00000000	          0.00000000	
          0.12224929	        -70.17376267	        698.06880915	        -12.16635646	          0.25121466	          0.00000000	          0.04648944	          0.00000000	          0.00000000	          0.00000000	          0.00000000	          0.00000000	          0.00000000	          0.00000000	         -3.38026052	          0.00000000	          0.00000000	          0.00000000	          0.00000000	
          0.13336286	        -61.84924439	        670.55119643	        -11.90915606	          0.25651914	          0.00000000	          0.04600177	          0.00000000	          0.00000000	          0.00000000	          0.00000000	          0.00000000	          0.00000000	          0.00000000	         -4.06593729	          0.00000000	          0.00000000	          0.00000000	          0.00000000	
          0.14447643	        -53.37802775	        642.17101925	        -12.20708959	          0.26140327	          0.00000000	          0.04571883	          0.00000000	          0.00000000	          0.00000000	          0.00000000	          0.00000000	          0.00000000	          0.00000000	         -4.58925189	          0.00000000	          0.00000000	          0.00000000	          0.00000000	
          0.15559000	        -45.17907303	        615.41440154	        -12.58586079	          0.26603533	          0.00000000	          0.04557425	          0.00000000	          0.00000000	          0.00000000	          0.00000000	          0.00000000	          0.00000000	          0.00000000	         -4.94723652	          0.00000000	          0.00000000	          0.00000000	          0.00000000	
          0.16670357	        -37.71486371	        591.94537134	        -13.28342809	          0.27057793	          0.00000000	          0.04552087	          0.00000000	          0.00000000	          0.00000000	          0.00000000	          0.00000000	          0.00000000	          0.00000000	         -5.16517129	          0.00000000	          0.00000000	          0.00000000	          0.00000000	
          0.17781715	        -31.17585928	        572.96995531	        -14.15756442	          0.27533869	          0.00000000	          0.04551938	          0.00000000	          0.00000000	          0.00000000	          0.00000000	          0.00000000	          0.00000000	          0.00000000	         -5.30658732	          0.00000000	          0.00000000	          0.00000000	          0.00000000	
